<svg version="1.1" viewBox="0.0 0.0 720.0 540.0" fill="none" stroke="none" stroke-linecap="square" stroke-miterlimit="10" xmlns:xlink="http://www.w3.org/1999/xlink" xmlns="http://www.w3.org/2000/svg"><clipPath id="p.0"><path d="m0 0l720.0 0l0 540.0l-720.0 0l0 -540.0z" clip-rule="nonzero"/></clipPath><g clip-path="url(#p.0)"><path fill="#000000" fill-opacity="0.0" d="m0 0l720.0 0l0 540.0l-720.0 0z" fill-rule="evenodd"/><path fill="#f6b26b" d="m65.520096 77.48586c2.364685 0 4.4444504 0.59117126 6.2393265 1.7735062c1.7948685 1.1823349 3.2122421 2.7991486 4.252136 4.8504333c1.0541229 2.0512772 1.5811996 4.4373245 1.5811996 7.158119c0 2.6210861 -0.56980896 4.9644012 -1.709404 7.0299225c-1.1253662 2.0512848 -2.6567078 3.6680984 -4.594017 4.8504333c-1.9230804 1.1823349 -4.109688 1.7735062 -6.5598373 1.7735062l-27.029938 0l0 -27.43592zm2.8846207 39.252167c2.5498505 0 4.7649612 0.6766434 6.645302 2.0299149c1.8803482 1.3532791 3.361824 3.105423 4.4444504 5.2564163c1.0968628 2.136757 1.6453018 4.522789 1.6453018 7.158119c0 2.535614 -0.5911789 4.8789215 -1.7735062 7.0299225c-1.1823273 2.1367645 -2.7991486 3.839035 -4.8504333 5.106842c-2.0512848 1.267807 -4.3945923 1.9017181 -7.0299225 1.9017181l-29.786346 0l0 -28.482933zm-45.40602 -51.98722l0 93.2052l44.487213 0c5.2564163 0 10.071228 -0.9615326 14.444458 -2.884613c4.37323 -1.9230804 7.849022 -4.679489 10.427361 -8.269241c2.5925903 -3.589737 3.8888931 -7.877487 3.8888931 -12.863251c0 -5.954422 -1.5527191 -11.011406 -4.658127 -15.170959c-3.1054077 -4.159546 -7.3290634 -7.0227966 -12.670952 -8.589752c4.2877655 -1.9373245 7.592613 -4.8931656 9.914543 -8.867523c2.3219452 -3.9886093 3.4829102 -8.254997 3.4829102 -12.799156c0 -3.945877 -0.8547058 -7.7350464 -2.5641098 -11.367531c-1.709404 -3.6324844 -4.166664 -6.6025696 -7.3717957 -8.910263c-3.1908798 -2.3219376 -6.9729385 -3.4829102 -11.3461685 -3.4829102z" fill-rule="evenodd"/><path fill="#f6b26b" d="m140.88765 98.74656c3.6752167 0 7.0227966 0.8547058 10.04274 2.5641098c3.019928 1.709404 5.5128174 4.074074 7.4786377 7.0940247c1.965805 3.0199432 3.0840454 6.4957275 3.3547058 10.427353l-41.495766 0c0.2564087 -3.9316254 1.3461533 -7.4074097 3.2692337 -10.427353c1.9373322 -3.0199509 4.415962 -5.3846207 7.435898 -7.0940247c3.0199432 -1.709404 6.3247986 -2.5641098 9.914551 -2.5641098zm0.12820435 -10.641029c-7.1795044 0 -13.440186 1.6453018 -18.782074 4.935898c-5.341881 3.2763596 -9.501434 7.6068497 -12.478638 12.991463c-2.9629745 5.3846207 -4.4444504 11.31768 -4.4444504 17.799164c0 4.8005753 0.8475876 9.323357 2.5427399 13.568382c1.7093964 4.2450104 4.1381836 8.012833 7.2863235 11.303436c3.1623993 3.276352 6.9088364 5.854706 11.2393265 7.7350464c4.3304977 1.8803406 9.166679 2.8205109 14.508568 2.8205109c4.814804 0 9.273499 -0.7621002 13.376068 -2.2863312c4.1168213 -1.5384521 7.685196 -3.6396027 10.705139 -6.303421c3.0199432 -2.6638184 5.270645 -5.6623993 6.7521515 -8.995728l-12.329071 -3.5470123c-1.2250671 3.1481476 -3.56839 5.6908875 -7.0299225 7.6282043c-3.4472961 1.9230804 -7.1011353 2.8846283 -10.961548 2.8846283c-3.5042725 0 -6.7877655 -0.8547058 -9.850433 -2.5641174c-3.062683 -1.7093964 -5.576935 -4.074066 -7.5427475 -7.0940094c-1.9658127 -3.0199585 -3.0840378 -6.5384674 -3.3547058 -10.5555725l55.021416 0c0.08546448 -0.61253357 0.17094421 -1.3746338 0.2564087 -2.2863235c0.08546448 -0.92593384 0.12820435 -1.9159622 0.12820435 -2.9700851c0 -6.125366 -1.4458771 -11.858986 -4.3376007 -17.200874c-2.8775024 -5.341881 -6.9230957 -9.651001 -12.136765 -12.927361c-5.1994324 -3.290596 -11.388901 -4.935898 -18.56839 -4.935898z" fill-rule="evenodd"/><path fill="#f6b26b" d="m214.25691 124.87906c2.6353302 0 5.3062744 0.24217224 8.012817 0.72650146c2.72081 0.47008514 5.3062744 1.1894531 7.756424 2.1581192l0 7.8846207c0 0.86894226 -0.3062744 1.8732147 -0.918808 3.0128174c-0.61253357 1.1396179 -1.4458618 2.2792206 -2.5 3.418808c-1.7521362 1.9230804 -4.0740814 3.4971619 -6.9658203 4.722229c-2.8774872 1.2250824 -5.8974457 1.837616 -9.05983 1.837616c-3.0626984 0 -5.6196747 -0.56980896 -7.6709595 -1.7094116c-2.0512848 -1.1396027 -3.625351 -2.6282043 -4.7222137 -4.465805c-1.096878 -1.837616 -1.6453094 -3.7606964 -1.6453094 -5.7692413c0 -3.6752167 1.6381836 -6.5598297 4.9145355 -8.653854c3.2906036 -2.108261 7.5569763 -3.1623993 12.799164 -3.1623993zm0.5341797 -36.77353c-5.071228 0 -9.907425 0.74786377 -14.50856 2.2435913c-4.586899 1.4814835 -9.159546 3.753563 -13.717957 6.816246l4.8504333 9.722229c3.8603973 -2.4501495 7.492874 -4.35186 10.897446 -5.7051315c3.418808 -1.3675232 7.051285 -2.0512848 10.897446 -2.0512848c5.427353 0 9.586899 1.3603973 12.478638 4.0811996c2.891739 2.7065582 4.337616 6.4672394 4.337616 11.282059l0 4.3376083c-2.4501495 -0.95441437 -5.2777863 -1.6524277 -8.482925 -2.094017c-3.1908875 -0.44159698 -6.3176727 -0.66239166 -9.380341 -0.66239166c-5.7692413 0 -10.84758 0.89743805 -15.235062 2.6923065c-4.3732147 1.7948761 -7.806259 4.337616 -10.299149 7.628212c-2.4928741 3.2763596 -3.7393188 7.101143 -3.7393188 11.474373c0 4.0313416 1.0042725 7.6638184 3.0128174 10.897446c2.0227966 3.2336273 4.821945 5.7906036 8.397446 7.670944c3.5897522 1.8803406 7.6638184 2.8205109 12.222229 2.8205109c4.729355 0 9.408844 -1.0470123 14.038483 -3.1410217c4.643875 -2.0940247 8.454422 -5.0712433 11.431625 -8.931641l0.38461304 3.953003c0.2706604 2.008545 1.1894684 3.7606812 2.756424 5.2564087c1.581192 1.4814911 3.903122 2.222229 6.965805 2.222229c0.6980133 0 1.5740814 -0.049865723 2.6282196 -0.14958191c1.0541229 -0.08546448 2.2364655 -0.2564087 3.5470123 -0.5128174l0 -11.55983c-1.4102631 -0.08547974 -2.400299 -0.47721863 -2.9700928 -1.1752167c-0.55555725 -0.6980133 -0.83332825 -1.8803406 -0.83332825 -3.5470123l0 -25.598312c0 -8.931633 -2.649582 -15.826225 -7.9487305 -20.683777c-5.2991486 -4.8575516 -12.54274 -7.286331 -21.73079 -7.286331z" fill-rule="evenodd"/><path fill="#f6b26b" d="m300.90686 88.10553c-5.683777 0 -10.740753 1.2962952 -15.170959 3.8888931c-4.4159546 2.5783463 -7.9772034 6.274933 -10.683746 11.089752l0 -13.782066l-13.11969 0l0 68.6539l14.423096 0l0 -40.833366c1.4957275 -4.8148117 3.9672546 -8.703705 7.414551 -11.666672c3.4615173 -2.977211 7.2079773 -4.4658127 11.239319 -4.4658127c3.93161 0 6.944458 1.4886017 9.038452 4.4658127c2.1082764 2.962967 3.1624146 7.642456 3.1624146 14.038475l0 38.461563l14.444458 0l0 -40.705154c1.3959961 -4.8148193 3.824768 -8.725082 7.286316 -11.730782c3.4615479 -3.0199432 7.2008667 -4.529915 11.217957 -4.529915c4.0313416 0 7.0940247 1.4886017 9.188049 4.4658127c2.1082458 2.962967 3.162384 7.642456 3.162384 14.038475l0 38.461563l14.444458 0l0 -41.88037c0 -3.7606888 -0.32763672 -7.321945 -0.98291016 -10.683769c-0.65527344 -3.3760757 -1.7307739 -6.353279 -3.2265015 -8.931633c-1.4814758 -2.5925903 -3.582611 -4.629631 -6.303406 -6.1111145c-2.7065735 -1.4957275 -6.0755005 -2.2435913 -10.106842 -2.2435913c-5.598297 0 -10.562683 1.339035 -14.893188 4.0170975c-4.330475 2.6638184 -7.9843445 6.5384674 -10.961548 11.6239395c-0.7977295 -4.4729385 -2.8347473 -8.198006 -6.1111145 -11.175224c-3.2763367 -2.9772034 -7.7635193 -4.4658127 -13.461548 -4.4658127z" fill-rule="evenodd"/><path fill="#f6b26b" d="m383.75922 62.1226l0 81.26074c0 4.900299 1.3959961 8.732208 4.188019 11.495743c2.8062744 2.7492828 6.659546 4.123932 11.559845 4.123932c2.2792053 0 4.857544 -0.3062744 7.7350464 -0.918808c2.8917236 -0.61253357 5.391754 -1.3532715 7.5 -2.2222137l-2.115387 -11.431641c-1.1395874 0.5270691 -2.4786377 0.96865845 -4.01709 1.3247833c-1.524231 0.34188843 -3.1552734 0.51283264 -4.893158 0.51283264c-1.5812073 0 -2.8988647 -0.47721863 -3.953003 -1.4316254c-1.0541382 -0.9686737 -1.5812073 -3.2051392 -1.5812073 -6.7094116l0 -76.00433zm28.999481 27.179508l28.226532 68.6539c-1.6524353 4.6438904 -3.0484314 8.190903 -4.1880493 10.641037c-1.1395874 2.4501343 -2.2578125 4.1310577 -3.3547058 5.04274c-1.0968628 0.92593384 -2.3860168 1.3888855 -3.8675232 1.3888855c-0.797699 0 -1.8304749 -0.11395264 -3.098297 -0.34187317c-1.2677917 -0.21368408 -2.5569763 -0.4059906 -3.8675232 -0.5769348l0 12.606857c1.3960266 0.34187317 2.6638184 0.59828186 3.8034363 0.7692261c1.1395874 0.18518066 2.2364502 0.27778625 3.2905884 0.27778625c3.675232 0 6.8661194 -0.61253357 9.572662 -1.837616c2.7207947 -1.2250671 5.0 -2.9131012 6.837616 -5.064102c1.837616 -2.1367493 3.233612 -4.480057 4.1880493 -7.0299225l31.132507 -84.52998l-13.931641 0l-18.632507 53.953033l-21.004272 -53.953033z" fill-rule="evenodd"/><path fill="#f6b26b" d="m495.59564 66.71662l0 22.585487l-9.059845 0l0 11.153854l9.059845 0l0 42.927383c0 3.6752167 0.7621155 6.6737976 2.286316 8.995743c1.5384827 2.32193 3.575531 4.009964 6.111145 5.064102c2.5498352 1.0398865 5.313385 1.5598297 8.290588 1.5598297c2.4501343 0 4.8290405 -0.26353455 7.13678 -0.79060364c2.3218994 -0.52705383 4.4016724 -1.1395874 6.239319 -1.8376007c1.8375854 -0.6980133 3.3689575 -1.3532715 4.593994 -1.9658203l-3.0128174 -11.410263c-0.8689575 0.4273529 -2.222229 0.9971466 -4.0598145 1.7094116c-1.8376465 0.69799805 -3.7678223 1.0469971 -5.7905884 1.0469971c-2.008606 0 -3.6895142 -0.5697937 -5.0427856 -1.7093964c-1.3532715 -1.1396027 -2.1224976 -2.891739 -2.3076782 -5.2564087l0 -38.333374l14.978638 0l0 -11.153854l-14.978638 0l0 -22.585487z" fill-rule="evenodd"/><path fill="#f6b26b" d="m540.25055 62.1226l0 15.87608l14.423096 0l0 -15.87608zm0 27.179508l0 68.6539l14.423096 0l0 -68.6539z" fill-rule="evenodd"/><path fill="#f6b26b" d="m603.13196 88.10553c-7.2649536 0 -13.546997 1.6239319 -18.846191 4.8717957c-5.2991333 3.2336197 -9.415955 7.5213776 -12.350403 12.863258c-2.920227 5.3418884 -4.380371 11.246445 -4.380371 17.713692c0 4.8148193 0.8475952 9.366104 2.5427246 13.653854c1.7094116 4.2877502 4.1381836 8.098297 7.286377 11.431641c3.1623535 3.3190918 6.9088135 5.918808 11.239319 7.7991486c4.3305054 1.8803406 9.166687 2.8205109 14.508545 2.8205109c4.9002686 0 9.337585 -0.7621002 13.311951 -2.2863312c3.9886475 -1.5384521 7.443054 -3.6182404 10.363281 -6.239319c2.9344482 -2.6210785 5.149597 -5.6410217 6.6453247 -9.05983l-14.188049 -4.188034c-0.6980591 1.7378845 -1.8803711 3.3333282 -3.547058 4.786316c-1.6524048 1.4387512 -3.5968628 2.5783691 -5.833313 3.418808c-2.2364502 0.82621765 -4.5370483 1.2393188 -6.9017334 1.2393188c-3.8461304 0 -7.3218994 -1.0256348 -10.427307 -3.0769196c-3.1054077 -2.0655212 -5.5769653 -4.8717957 -7.414551 -8.418808c-1.8376465 -3.5470123 -2.7564087 -7.5071335 -2.7564087 -11.880356c0 -4.5441666 0.8973999 -8.547012 2.6923218 -12.00856c1.7948608 -3.4615402 4.244995 -6.1752167 7.350403 -8.141029c3.1054077 -1.9658127 6.5811768 -2.9487228 10.427368 -2.9487228c3.4188232 0 6.5455933 0.81196594 9.380371 2.4359055c2.848938 1.6096802 5.064087 3.8603973 6.6452637 6.752136l14.038513 -4.4658127c-2.4501953 -5.1567 -6.2821045 -9.28775 -11.495789 -12.393173c-5.199402 -3.1196594 -11.296265 -4.679489 -18.290588 -4.679489z" fill-rule="evenodd"/><path fill="#f6b26b" d="m671.0058 88.10553c-5.341858 0 -10.049866 0.8333359 -14.123901 2.5c-4.0740967 1.6666718 -7.2507324 4.0740814 -9.529968 7.222229c-2.2649536 3.1481476 -3.3974 6.9586945 -3.3974 11.431633c0 3.6752167 0.8262329 6.69516 2.4786377 9.059837c1.666626 2.3504257 4.159546 4.3376083 7.4786377 5.96154c3.333313 1.6239319 7.4501343 3.1766357 12.350403 4.658119c3.5042725 0.9686737 6.5028687 1.8447418 8.995728 2.6282196c2.49292 0.7834625 4.3945923 1.7022705 5.705139 2.7564087c1.3248291 1.0541382 1.9871826 2.6709442 1.9871826 4.8504333c0 2.9772034 -1.2749023 5.2350464 -3.824768 6.7734985c-2.5356445 1.524231 -5.8119507 2.2863312 -9.829102 2.2863312c-3.9458618 0 -7.913086 -0.7834778 -11.901672 -2.3504333c-3.9743652 -1.581192 -7.927368 -4.123932 -11.859009 -7.6282043l-5.3846436 9.722229c3.675232 3.7606812 8.091187 6.5812073 13.247925 8.461548c5.1708984 1.8803406 10.640991 2.8205109 16.410278 2.8205109c8.233582 0 14.821899 -1.8589783 19.764954 -5.5769196c4.942993 -3.7179565 7.414551 -8.903137 7.414551 -15.5555725c0 -4.202286 -1.0327759 -7.507126 -3.0983276 -9.9145355c-2.0512695 -2.4074097 -4.9572754 -4.3732224 -8.717957 -5.8974457c-3.7606812 -1.5384598 -8.311951 -3.0911713 -13.65387 -4.658119c-3.062622 -0.9686661 -5.6481323 -1.8447342 -7.7564087 -2.628212c-2.0939941 -0.7834778 -3.6680908 -1.745018 -4.722229 -2.884613c-1.039856 -1.1396027 -1.5598145 -2.628212 -1.5598145 -4.4658203c0 -2.2792053 0.63391113 -4.0527115 1.9017334 -5.3205185c1.2677612 -1.2677994 2.8632202 -2.1438751 4.786316 -2.6282043c1.9230957 -0.48432922 3.9387207 -0.72649384 6.046997 -0.72649384c3.675232 0 7.1082764 0.66239166 10.299133 1.9871826c3.190918 1.3105392 6.317688 3.361824 9.380371 6.1538467l6.175232 -9.572655c-3.2336426 -3.2478714 -6.9729614 -5.633911 -11.217957 -7.158127c-4.245056 -1.5384598 -8.860413 -2.3076935 -13.846191 -2.3076935z" fill-rule="evenodd"/><path stroke="#000000" stroke-width="1.0" stroke-linejoin="round" stroke-linecap="butt" d="m65.520096 77.48586c2.364685 0 4.4444504 0.59117126 6.2393265 1.7735062c1.7948685 1.1823349 3.2122421 2.7991486 4.252136 4.8504333c1.0541229 2.0512772 1.5811996 4.4373245 1.5811996 7.158119c0 2.6210861 -0.56980896 4.9644012 -1.709404 7.0299225c-1.1253662 2.0512848 -2.6567078 3.6680984 -4.594017 4.8504333c-1.9230804 1.1823349 -4.109688 1.7735062 -6.5598373 1.7735062l-27.029938 0l0 -27.43592zm2.8846207 39.252167c2.5498505 0 4.7649612 0.6766434 6.645302 2.0299149c1.8803482 1.3532791 3.361824 3.105423 4.4444504 5.2564163c1.0968628 2.136757 1.6453018 4.522789 1.6453018 7.158119c0 2.535614 -0.5911789 4.8789215 -1.7735062 7.0299225c-1.1823273 2.1367645 -2.7991486 3.839035 -4.8504333 5.106842c-2.0512848 1.267807 -4.3945923 1.9017181 -7.0299225 1.9017181l-29.786346 0l0 -28.482933zm-45.40602 -51.98722l0 93.2052l44.487213 0c5.2564163 0 10.071228 -0.9615326 14.444458 -2.884613c4.37323 -1.9230804 7.849022 -4.679489 10.427361 -8.269241c2.5925903 -3.589737 3.8888931 -7.877487 3.8888931 -12.863251c0 -5.954422 -1.5527191 -11.011406 -4.658127 -15.170959c-3.1054077 -4.159546 -7.3290634 -7.0227966 -12.670952 -8.589752c4.2877655 -1.9373245 7.592613 -4.8931656 9.914543 -8.867523c2.3219452 -3.9886093 3.4829102 -8.254997 3.4829102 -12.799156c0 -3.945877 -0.8547058 -7.7350464 -2.5641098 -11.367531c-1.709404 -3.6324844 -4.166664 -6.6025696 -7.3717957 -8.910263c-3.1908798 -2.3219376 -6.9729385 -3.4829102 -11.3461685 -3.4829102z" fill-rule="evenodd"/><path stroke="#000000" stroke-width="1.0" stroke-linejoin="round" stroke-linecap="butt" d="m140.88765 98.74656c3.6752167 0 7.0227966 0.8547058 10.04274 2.5641098c3.019928 1.709404 5.5128174 4.074074 7.4786377 7.0940247c1.965805 3.0199432 3.0840454 6.4957275 3.3547058 10.427353l-41.495766 0c0.2564087 -3.9316254 1.3461533 -7.4074097 3.2692337 -10.427353c1.9373322 -3.0199509 4.415962 -5.3846207 7.435898 -7.0940247c3.0199432 -1.709404 6.3247986 -2.5641098 9.914551 -2.5641098zm0.12820435 -10.641029c-7.1795044 0 -13.440186 1.6453018 -18.782074 4.935898c-5.341881 3.2763596 -9.501434 7.6068497 -12.478638 12.991463c-2.9629745 5.3846207 -4.4444504 11.31768 -4.4444504 17.799164c0 4.8005753 0.8475876 9.323357 2.5427399 13.568382c1.7093964 4.2450104 4.1381836 8.012833 7.2863235 11.303436c3.1623993 3.276352 6.9088364 5.854706 11.2393265 7.7350464c4.3304977 1.8803406 9.166679 2.8205109 14.508568 2.8205109c4.814804 0 9.273499 -0.7621002 13.376068 -2.2863312c4.1168213 -1.5384521 7.685196 -3.6396027 10.705139 -6.303421c3.0199432 -2.6638184 5.270645 -5.6623993 6.7521515 -8.995728l-12.329071 -3.5470123c-1.2250671 3.1481476 -3.56839 5.6908875 -7.0299225 7.6282043c-3.4472961 1.9230804 -7.1011353 2.8846283 -10.961548 2.8846283c-3.5042725 0 -6.7877655 -0.8547058 -9.850433 -2.5641174c-3.062683 -1.7093964 -5.576935 -4.074066 -7.5427475 -7.0940094c-1.9658127 -3.0199585 -3.0840378 -6.5384674 -3.3547058 -10.5555725l55.021416 0c0.08546448 -0.61253357 0.17094421 -1.3746338 0.2564087 -2.2863235c0.08546448 -0.92593384 0.12820435 -1.9159622 0.12820435 -2.9700851c0 -6.125366 -1.4458771 -11.858986 -4.3376007 -17.200874c-2.8775024 -5.341881 -6.9230957 -9.651001 -12.136765 -12.927361c-5.1994324 -3.290596 -11.388901 -4.935898 -18.56839 -4.935898z" fill-rule="evenodd"/><path stroke="#000000" stroke-width="1.0" stroke-linejoin="round" stroke-linecap="butt" d="m214.25691 124.87906c2.6353302 0 5.3062744 0.24217224 8.012817 0.72650146c2.72081 0.47008514 5.3062744 1.1894531 7.756424 2.1581192l0 7.8846207c0 0.86894226 -0.3062744 1.8732147 -0.918808 3.0128174c-0.61253357 1.1396179 -1.4458618 2.2792206 -2.5 3.418808c-1.7521362 1.9230804 -4.0740814 3.4971619 -6.9658203 4.722229c-2.8774872 1.2250824 -5.8974457 1.837616 -9.05983 1.837616c-3.0626984 0 -5.6196747 -0.56980896 -7.6709595 -1.7094116c-2.0512848 -1.1396027 -3.625351 -2.6282043 -4.7222137 -4.465805c-1.096878 -1.837616 -1.6453094 -3.7606964 -1.6453094 -5.7692413c0 -3.6752167 1.6381836 -6.5598297 4.9145355 -8.653854c3.2906036 -2.108261 7.5569763 -3.1623993 12.799164 -3.1623993zm0.5341797 -36.77353c-5.071228 0 -9.907425 0.74786377 -14.50856 2.2435913c-4.586899 1.4814835 -9.159546 3.753563 -13.717957 6.816246l4.8504333 9.722229c3.8603973 -2.4501495 7.492874 -4.35186 10.897446 -5.7051315c3.418808 -1.3675232 7.051285 -2.0512848 10.897446 -2.0512848c5.427353 0 9.586899 1.3603973 12.478638 4.0811996c2.891739 2.7065582 4.337616 6.4672394 4.337616 11.282059l0 4.3376083c-2.4501495 -0.95441437 -5.2777863 -1.6524277 -8.482925 -2.094017c-3.1908875 -0.44159698 -6.3176727 -0.66239166 -9.380341 -0.66239166c-5.7692413 0 -10.84758 0.89743805 -15.235062 2.6923065c-4.3732147 1.7948761 -7.806259 4.337616 -10.299149 7.628212c-2.4928741 3.2763596 -3.7393188 7.101143 -3.7393188 11.474373c0 4.0313416 1.0042725 7.6638184 3.0128174 10.897446c2.0227966 3.2336273 4.821945 5.7906036 8.397446 7.670944c3.5897522 1.8803406 7.6638184 2.8205109 12.222229 2.8205109c4.729355 0 9.408844 -1.0470123 14.038483 -3.1410217c4.643875 -2.0940247 8.454422 -5.0712433 11.431625 -8.931641l0.38461304 3.953003c0.2706604 2.008545 1.1894684 3.7606812 2.756424 5.2564087c1.581192 1.4814911 3.903122 2.222229 6.965805 2.222229c0.6980133 0 1.5740814 -0.049865723 2.6282196 -0.14958191c1.0541229 -0.08546448 2.2364655 -0.2564087 3.5470123 -0.5128174l0 -11.55983c-1.4102631 -0.08547974 -2.400299 -0.47721863 -2.9700928 -1.1752167c-0.55555725 -0.6980133 -0.83332825 -1.8803406 -0.83332825 -3.5470123l0 -25.598312c0 -8.931633 -2.649582 -15.826225 -7.9487305 -20.683777c-5.2991486 -4.8575516 -12.54274 -7.286331 -21.73079 -7.286331z" fill-rule="evenodd"/><path stroke="#000000" stroke-width="1.0" stroke-linejoin="round" stroke-linecap="butt" d="m300.90686 88.10553c-5.683777 0 -10.740753 1.2962952 -15.170959 3.8888931c-4.4159546 2.5783463 -7.9772034 6.274933 -10.683746 11.089752l0 -13.782066l-13.11969 0l0 68.6539l14.423096 0l0 -40.833366c1.4957275 -4.8148117 3.9672546 -8.703705 7.414551 -11.666672c3.4615173 -2.977211 7.2079773 -4.4658127 11.239319 -4.4658127c3.93161 0 6.944458 1.4886017 9.038452 4.4658127c2.1082764 2.962967 3.1624146 7.642456 3.1624146 14.038475l0 38.461563l14.444458 0l0 -40.705154c1.3959961 -4.8148193 3.824768 -8.725082 7.286316 -11.730782c3.4615479 -3.0199432 7.2008667 -4.529915 11.217957 -4.529915c4.0313416 0 7.0940247 1.4886017 9.188049 4.4658127c2.1082458 2.962967 3.162384 7.642456 3.162384 14.038475l0 38.461563l14.444458 0l0 -41.88037c0 -3.7606888 -0.32763672 -7.321945 -0.98291016 -10.683769c-0.65527344 -3.3760757 -1.7307739 -6.353279 -3.2265015 -8.931633c-1.4814758 -2.5925903 -3.582611 -4.629631 -6.303406 -6.1111145c-2.7065735 -1.4957275 -6.0755005 -2.2435913 -10.106842 -2.2435913c-5.598297 0 -10.562683 1.339035 -14.893188 4.0170975c-4.330475 2.6638184 -7.9843445 6.5384674 -10.961548 11.6239395c-0.7977295 -4.4729385 -2.8347473 -8.198006 -6.1111145 -11.175224c-3.2763367 -2.9772034 -7.7635193 -4.4658127 -13.461548 -4.4658127z" fill-rule="evenodd"/><path stroke="#000000" stroke-width="1.0" stroke-linejoin="round" stroke-linecap="butt" d="m383.75922 62.1226l0 81.26074c0 4.900299 1.3959961 8.732208 4.188019 11.495743c2.8062744 2.7492828 6.659546 4.123932 11.559845 4.123932c2.2792053 0 4.857544 -0.3062744 7.7350464 -0.918808c2.8917236 -0.61253357 5.391754 -1.3532715 7.5 -2.2222137l-2.115387 -11.431641c-1.1395874 0.5270691 -2.4786377 0.96865845 -4.01709 1.3247833c-1.524231 0.34188843 -3.1552734 0.51283264 -4.893158 0.51283264c-1.5812073 0 -2.8988647 -0.47721863 -3.953003 -1.4316254c-1.0541382 -0.9686737 -1.5812073 -3.2051392 -1.5812073 -6.7094116l0 -76.00433zm28.999481 27.179508l28.226532 68.6539c-1.6524353 4.6438904 -3.0484314 8.190903 -4.1880493 10.641037c-1.1395874 2.4501343 -2.2578125 4.1310577 -3.3547058 5.04274c-1.0968628 0.92593384 -2.3860168 1.3888855 -3.8675232 1.3888855c-0.797699 0 -1.8304749 -0.11395264 -3.098297 -0.34187317c-1.2677917 -0.21368408 -2.5569763 -0.4059906 -3.8675232 -0.5769348l0 12.606857c1.3960266 0.34187317 2.6638184 0.59828186 3.8034363 0.7692261c1.1395874 0.18518066 2.2364502 0.27778625 3.2905884 0.27778625c3.675232 0 6.8661194 -0.61253357 9.572662 -1.837616c2.7207947 -1.2250671 5.0 -2.9131012 6.837616 -5.064102c1.837616 -2.1367493 3.233612 -4.480057 4.1880493 -7.0299225l31.132507 -84.52998l-13.931641 0l-18.632507 53.953033l-21.004272 -53.953033z" fill-rule="evenodd"/><path stroke="#000000" stroke-width="1.0" stroke-linejoin="round" stroke-linecap="butt" d="m495.59564 66.71662l0 22.585487l-9.059845 0l0 11.153854l9.059845 0l0 42.927383c0 3.6752167 0.7621155 6.6737976 2.286316 8.995743c1.5384827 2.32193 3.575531 4.009964 6.111145 5.064102c2.5498352 1.0398865 5.313385 1.5598297 8.290588 1.5598297c2.4501343 0 4.8290405 -0.26353455 7.13678 -0.79060364c2.3218994 -0.52705383 4.4016724 -1.1395874 6.239319 -1.8376007c1.8375854 -0.6980133 3.3689575 -1.3532715 4.593994 -1.9658203l-3.0128174 -11.410263c-0.8689575 0.4273529 -2.222229 0.9971466 -4.0598145 1.7094116c-1.8376465 0.69799805 -3.7678223 1.0469971 -5.7905884 1.0469971c-2.008606 0 -3.6895142 -0.5697937 -5.0427856 -1.7093964c-1.3532715 -1.1396027 -2.1224976 -2.891739 -2.3076782 -5.2564087l0 -38.333374l14.978638 0l0 -11.153854l-14.978638 0l0 -22.585487z" fill-rule="evenodd"/><path stroke="#000000" stroke-width="1.0" stroke-linejoin="round" stroke-linecap="butt" d="m540.25055 62.1226l0 15.87608l14.423096 0l0 -15.87608zm0 27.179508l0 68.6539l14.423096 0l0 -68.6539z" fill-rule="evenodd"/><path stroke="#000000" stroke-width="1.0" stroke-linejoin="round" stroke-linecap="butt" d="m603.13196 88.10553c-7.2649536 0 -13.546997 1.6239319 -18.846191 4.8717957c-5.2991333 3.2336197 -9.415955 7.5213776 -12.350403 12.863258c-2.920227 5.3418884 -4.380371 11.246445 -4.380371 17.713692c0 4.8148193 0.8475952 9.366104 2.5427246 13.653854c1.7094116 4.2877502 4.1381836 8.098297 7.286377 11.431641c3.1623535 3.3190918 6.9088135 5.918808 11.239319 7.7991486c4.3305054 1.8803406 9.166687 2.8205109 14.508545 2.8205109c4.9002686 0 9.337585 -0.7621002 13.311951 -2.2863312c3.9886475 -1.5384521 7.443054 -3.6182404 10.363281 -6.239319c2.9344482 -2.6210785 5.149597 -5.6410217 6.6453247 -9.05983l-14.188049 -4.188034c-0.6980591 1.7378845 -1.8803711 3.3333282 -3.547058 4.786316c-1.6524048 1.4387512 -3.5968628 2.5783691 -5.833313 3.418808c-2.2364502 0.82621765 -4.5370483 1.2393188 -6.9017334 1.2393188c-3.8461304 0 -7.3218994 -1.0256348 -10.427307 -3.0769196c-3.1054077 -2.0655212 -5.5769653 -4.8717957 -7.414551 -8.418808c-1.8376465 -3.5470123 -2.7564087 -7.5071335 -2.7564087 -11.880356c0 -4.5441666 0.8973999 -8.547012 2.6923218 -12.00856c1.7948608 -3.4615402 4.244995 -6.1752167 7.350403 -8.141029c3.1054077 -1.9658127 6.5811768 -2.9487228 10.427368 -2.9487228c3.4188232 0 6.5455933 0.81196594 9.380371 2.4359055c2.848938 1.6096802 5.064087 3.8603973 6.6452637 6.752136l14.038513 -4.4658127c-2.4501953 -5.1567 -6.2821045 -9.28775 -11.495789 -12.393173c-5.199402 -3.1196594 -11.296265 -4.679489 -18.290588 -4.679489z" fill-rule="evenodd"/><path stroke="#000000" stroke-width="1.0" stroke-linejoin="round" stroke-linecap="butt" d="m671.0058 88.10553c-5.341858 0 -10.049866 0.8333359 -14.123901 2.5c-4.0740967 1.6666718 -7.2507324 4.0740814 -9.529968 7.222229c-2.2649536 3.1481476 -3.3974 6.9586945 -3.3974 11.431633c0 3.6752167 0.8262329 6.69516 2.4786377 9.059837c1.666626 2.3504257 4.159546 4.3376083 7.4786377 5.96154c3.333313 1.6239319 7.4501343 3.1766357 12.350403 4.658119c3.5042725 0.9686737 6.5028687 1.8447418 8.995728 2.6282196c2.49292 0.7834625 4.3945923 1.7022705 5.705139 2.7564087c1.3248291 1.0541382 1.9871826 2.6709442 1.9871826 4.8504333c0 2.9772034 -1.2749023 5.2350464 -3.824768 6.7734985c-2.5356445 1.524231 -5.8119507 2.2863312 -9.829102 2.2863312c-3.9458618 0 -7.913086 -0.7834778 -11.901672 -2.3504333c-3.9743652 -1.581192 -7.927368 -4.123932 -11.859009 -7.6282043l-5.3846436 9.722229c3.675232 3.7606812 8.091187 6.5812073 13.247925 8.461548c5.1708984 1.8803406 10.640991 2.8205109 16.410278 2.8205109c8.233582 0 14.821899 -1.8589783 19.764954 -5.5769196c4.942993 -3.7179565 7.414551 -8.903137 7.414551 -15.5555725c0 -4.202286 -1.0327759 -7.507126 -3.0983276 -9.9145355c-2.0512695 -2.4074097 -4.9572754 -4.3732224 -8.717957 -5.8974457c-3.7606812 -1.5384598 -8.311951 -3.0911713 -13.65387 -4.658119c-3.062622 -0.9686661 -5.6481323 -1.8447342 -7.7564087 -2.628212c-2.0939941 -0.7834778 -3.6680908 -1.745018 -4.722229 -2.884613c-1.039856 -1.1396027 -1.5598145 -2.628212 -1.5598145 -4.4658203c0 -2.2792053 0.63391113 -4.0527115 1.9017334 -5.3205185c1.2677612 -1.2677994 2.8632202 -2.1438751 4.786316 -2.6282043c1.9230957 -0.48432922 3.9387207 -0.72649384 6.046997 -0.72649384c3.675232 0 7.1082764 0.66239166 10.299133 1.9871826c3.190918 1.3105392 6.317688 3.361824 9.380371 6.1538467l6.175232 -9.572655c-3.2336426 -3.2478714 -6.9729614 -5.633911 -11.217957 -7.158127c-4.245056 -1.5384598 -8.860413 -2.3076935 -13.846191 -2.3076935z" fill-rule="evenodd"/></g></svg>