<svg version="1.1" viewBox="0.0 0.0 720.0 540.0" fill="none" stroke="none" stroke-linecap="square" stroke-miterlimit="10" xmlns:xlink="http://www.w3.org/1999/xlink" xmlns="http://www.w3.org/2000/svg"><clipPath id="p.0"><path d="m0 0l720.0 0l0 540.0l-720.0 0l0 -540.0z" clip-rule="nonzero"/></clipPath><g clip-path="url(#p.0)"><path fill="#000000" fill-opacity="0.0" d="m0 0l720.0 0l0 540.0l-720.0 0z" fill-rule="evenodd"/><path fill="#000000" fill-opacity="0.0" d="m112.72179 99.84252l219.0236 0l0 64.62992l-219.0236 0z" fill-rule="evenodd"/><path fill="#e69138" d="m145.53429 137.85439q0 2.125 -1.109375 3.65625q-1.09375 1.53125 -2.96875 2.359375q-1.859375 0.8125 -4.09375 0.8125l-12.65625 0l0 -26.499992l13.65625 0q1.875 0 3.234375 0.984375q1.359375 0.984375 2.09375 2.546875q0.734375 1.546875 0.734375 3.21875q0 1.9375 -1.0 3.6406174q-0.984375 1.703125 -2.8125 2.515625q2.28125 0.671875 3.59375 2.453125q1.328125 1.765625 1.328125 4.3125zm-4.296875 -0.78125q0 -1.125 -0.46875 -2.03125q-0.453125 -0.921875 -1.265625 -1.5q-0.796875 -0.578125 -1.875 -0.578125l-8.734375 0l0 8.09375l8.46875 0q1.125 0 2.0 -0.53125q0.875 -0.546875 1.375 -1.453125q0.5 -0.921875 0.5 -2.0zm-12.34375 -15.265617l0 7.7968674l7.6875 0q1.046875 0 1.859375 -0.5q0.828125 -0.515625 1.3125 -1.3906174q0.484375 -0.875 0.484375 -2.0q0 -1.15625 -0.453125 -2.03125q-0.4375 -0.875 -1.203125 -1.375q-0.765625 -0.5 -1.78125 -0.5l-7.90625 0zm29.337189 23.249992q-2.28125 0 -4.125 -0.796875q-1.84375 -0.8125 -3.1875 -2.203125q-1.34375 -1.40625 -2.078125 -3.21875q-0.734375 -1.8125 -0.734375 -3.859375q0 -2.765625 1.265625 -5.0625q1.28125 -2.2968674 3.546875 -3.6874924q2.28125 -1.40625 5.34375 -1.40625q3.0625 0 5.28125 1.40625q2.21875 1.390625 3.453125 3.6718674q1.234375 2.28125 1.234375 4.890625q0 0.453125 -0.046875 0.84375q-0.03125 0.390625 -0.0625 0.640625l-15.640625 0q0.109375 1.71875 0.953125 3.015625q0.84375 1.28125 2.140625 2.015625q1.3125 0.71875 2.796875 0.71875q1.65625 0 3.125 -0.8125q1.46875 -0.828125 2.0 -2.171875l3.5 1.015625q-0.625 1.421875 -1.921875 2.5625q-1.28125 1.125 -3.046875 1.78125q-1.75 0.65625 -3.796875 0.65625zm-5.859375 -11.5l11.796875 0q-0.109375 -1.671875 -0.953125 -2.953125q-0.84375 -1.296875 -2.140625 -2.015625q-1.28125 -0.7343674 -2.84375 -0.7343674q-1.53125 0 -2.828125 0.7343674q-1.28125 0.71875 -2.109375 2.015625q-0.8125 1.28125 -0.921875 2.953125zm17.804062 5.40625q0 -1.859375 1.0625 -3.25q1.0625 -1.40625 2.921875 -2.171875q1.875 -0.765625 4.34375 -0.765625q1.296875 0 2.65625 0.1875q1.375 0.1875 2.421875 0.59375l0 -1.234375q0 -2.046875 -1.234375 -3.203125q-1.234375 -1.1562424 -3.546875 -1.1562424q-1.640625 0 -3.109375 0.5781174q-1.453125 0.578125 -3.09375 1.625l-1.375 -2.7656174q1.9375 -1.3125 3.890625 -1.9375q1.96875 -0.640625 4.125 -0.640625q3.921875 0 6.171875 2.078125q2.265625 2.0624924 2.265625 5.8749924l0 7.28125q0 0.703125 0.234375 1.0q0.25 0.296875 0.859375 0.34375l0 3.28125q-0.5625 0.109375 -1.015625 0.140625q-0.453125 0.046875 -0.75 0.046875q-1.296875 0 -1.96875 -0.625q-0.671875 -0.640625 -0.78125 -1.5l-0.125 -1.125q-1.265625 1.640625 -3.25 2.546875q-1.96875 0.890625 -3.984375 0.890625q-1.9375 0 -3.46875 -0.796875q-1.53125 -0.8125 -2.390625 -2.1875q-0.859375 -1.390625 -0.859375 -3.109375zm12.421875 1.203125q0.453125 -0.484375 0.71875 -0.96875q0.265625 -0.484375 0.265625 -0.859375l0 -2.234375q-1.046875 -0.421875 -2.203125 -0.625q-1.15625 -0.203125 -2.28125 -0.203125q-2.234375 0 -3.640625 0.90625q-1.40625 0.890625 -1.40625 2.453125q0 0.859375 0.46875 1.640625q0.46875 0.78125 1.34375 1.265625q0.875 0.484375 2.1875 0.484375q1.34375 0 2.578125 -0.515625q1.234375 -0.53125 1.96875 -1.34375zm39.912506 4.515625l-4.109375 0l0 -10.9375q0 -2.71875 -0.90625 -3.984375q-0.890625 -1.28125 -2.59375 -1.28125q-1.71875 0 -3.203125 1.296875q-1.46875 1.28125 -2.0625 3.328125l0 11.578125l-4.109375 0l0 -10.9375q0 -2.71875 -0.90625 -3.984375q-0.890625 -1.28125 -2.5625 -1.28125q-1.71875 0 -3.203125 1.28125q-1.46875 1.265625 -2.109375 3.3125l0 11.609375l-4.09375 0l0 -19.515617l3.734375 0l0 3.9062424q1.15625 -2.0468674 3.03125 -3.1406174q1.890625 -1.109375 4.3125 -1.109375q2.421875 0 3.828125 1.28125q1.40625 1.265625 1.734375 3.1562424q1.265625 -2.1562424 3.109375 -3.2968674q1.859375 -1.140625 4.25 -1.140625q1.71875 0 2.875 0.640625q1.15625 0.625 1.78125 1.734375q0.640625 1.0937424 0.921875 2.5312424q0.28125 1.4375 0.28125 3.046875l0 11.90625zm4.7751617 -27.249992l4.109375 0l0 21.609367q0 1.5 0.4375 1.90625q0.453125 0.40625 1.125 0.40625q0.75 0 1.40625 -0.140625q0.65625 -0.15625 1.140625 -0.375l0.59375 3.25q-0.890625 0.375 -2.125 0.625q-1.234375 0.265625 -2.203125 0.265625q-2.09375 0 -3.296875 -1.171875q-1.1875 -1.171875 -1.1875 -3.265625l0 -23.109367zm11.055084 31.843742q0.5625 0.078125 1.09375 0.171875q0.546875 0.09375 0.875 0.09375q0.640625 0 1.109375 -0.40625q0.46875 -0.390625 0.953125 -1.4375q0.484375 -1.03125 1.1875 -3.015625l-8.015625 -19.515617l4.28125 0l5.96875 15.328117l5.3125 -15.328117l3.953125 0l-8.84375 24.031242q-0.421875 1.078125 -1.203125 1.984375q-0.78125 0.921875 -1.9375 1.4375q-1.15625 0.53125 -2.71875 0.53125q-0.453125 0 -0.9375 -0.078125q-0.484375 -0.0625 -1.078125 -0.21875l0 -3.578125zm30.606033 -5.609375q-0.53125 0.265625 -1.3125 0.5625q-0.78125 0.296875 -1.78125 0.515625q-0.984375 0.234375 -2.015625 0.234375q-1.28125 0 -2.359375 -0.4375q-1.078125 -0.453125 -1.734375 -1.4375q-0.65625 -1.0 -0.65625 -2.5625l0 -12.203125l-2.578125 0l0 -3.1718674l2.578125 0l0 -6.421875l4.109375 0l0 6.421875l4.25 0l0 3.1718674l-4.25 0l0 10.890625q0.078125 1.015625 0.65625 1.5q0.578125 0.484375 1.4375 0.484375q0.859375 0 1.640625 -0.296875q0.78125 -0.296875 1.15625 -0.484375l0.859375 3.234375zm2.840088 1.015625l0 -19.515617l4.09375 0l0 19.515617l-4.09375 0zm0 -22.734367l0 -4.515625l4.09375 0l0 4.515625l-4.09375 0zm17.877197 23.109367q-2.28125 0 -4.125 -0.796875q-1.84375 -0.8125 -3.1875 -2.21875q-1.34375 -1.421875 -2.078125 -3.25q-0.734375 -1.84375 -0.734375 -3.890625q0 -2.765625 1.25 -5.03125q1.265625 -2.2812424 3.515625 -3.6562424q2.265625 -1.390625 5.359375 -1.390625q2.984375 0 5.203125 1.328125q2.21875 1.328125 3.265625 3.5312424l-3.984375 1.265625q-0.671875 -1.234375 -1.890625 -1.921875q-1.21875 -0.6875 -2.671875 -0.6875q-1.640625 0 -2.96875 0.84375q-1.328125 0.828125 -2.09375 2.3125q-0.765625 1.46875 -0.765625 3.40625q0 1.875 0.78125 3.390625q0.796875 1.5 2.109375 2.375q1.328125 0.875 2.96875 0.875q1.015625 0 1.96875 -0.34375q0.953125 -0.359375 1.65625 -0.96875q0.71875 -0.625 1.015625 -1.375l4.03125 1.203125q-0.640625 1.453125 -1.890625 2.578125q-1.25 1.109375 -2.953125 1.765625q-1.6875 0.65625 -3.78125 0.65625zm18.960236 0q-2.46875 0 -4.671875 -0.796875q-2.203125 -0.8125 -3.765625 -2.421875l1.53125 -2.75q1.6875 1.484375 3.375 2.15625q1.703125 0.671875 3.375 0.671875q1.71875 0 2.796875 -0.640625q1.09375 -0.65625 1.09375 -1.9375q0 -0.921875 -0.5625 -1.375q-0.5625 -0.453125 -1.625 -0.78125q-1.0625 -0.34375 -2.546875 -0.75q-2.09375 -0.640625 -3.515625 -1.328125q-1.421875 -0.6875 -2.140625 -1.6875q-0.703125 -1.015625 -0.703125 -2.578125q0 -1.90625 0.96875 -3.2499924q0.984375 -1.34375 2.71875 -2.046875q1.734375 -0.71875 4.015625 -0.71875q2.125 0 3.921875 0.65625q1.8125 0.65625 3.203125 2.03125l-1.75 2.7187424q-1.3125 -1.1875 -2.671875 -1.75q-1.359375 -0.5624924 -2.9375 -0.5624924q-0.890625 0 -1.71875 0.21874237q-0.8125 0.203125 -1.359375 0.75q-0.546875 0.53125 -0.546875 1.5q0 0.78125 0.453125 1.265625q0.453125 0.484375 1.34375 0.828125q0.890625 0.328125 2.203125 0.75q2.28125 0.671875 3.875 1.328125q1.609375 0.640625 2.484375 1.671875q0.890625 1.03125 0.890625 2.8125q0 2.84375 -2.109375 4.4375q-2.109375 1.578125 -5.625 1.578125z" fill-rule="nonzero"/></g></svg>